<?xml version="1.0" standalone="no"?>
<!DOCTYPE svg PUBLIC "-//W3C//DTD SVG 20010904//EN"
 "http://www.w3.org/TR/2001/REC-SVG-20010904/DTD/svg10.dtd">
<svg version="1.0" xmlns="http://www.w3.org/2000/svg"
 width="223.000000pt" height="226.000000pt" viewBox="0 0 223.000000 226.000000"
 preserveAspectRatio="xMidYMid meet">
<metadata>
Created by potrace 1.15, written by Peter Selinger 2001-2017
</metadata>
<g transform="translate(0.000000,226.000000) scale(0.100000,-0.100000)"
fill="#000000" stroke="none">
<path d="M1040 2244 c-242 -26 -423 -93 -595 -221 -491 -365 -589 -1063 -219
-1556 209 -279 530 -437 884 -437 498 0 925 322 1064 803 180 619 -227 1279
-858 1391 -89 16 -222 26 -276 20z m408 -1111 l2 -373 -75 0 -75 0 0 368 c0
203 3 372 7 376 4 4 37 6 73 4 l65 -3 3 -372z m-998 243 c39 -69 77 -132 84
-142 11 -15 23 1 97 125 l83 141 88 0 c48 0 88 -3 88 -6 0 -3 -57 -101 -128
-217 l-127 -212 -5 -150 -5 -150 -82 -3 -83 -3 0 147 0 146 -135 224 -134 224
93 0 93 0 73 -124z m1586 90 c67 -67 24 -166 -71 -166 -83 0 -130 80 -88 150
35 60 108 67 159 16z m-906 -168 c46 -14 78 -36 93 -62 8 -14 14 -94 17 -231
3 -116 9 -218 14 -227 7 -16 1 -18 -68 -18 -71 0 -76 1 -81 23 l-6 23 -56 -28
c-43 -22 -70 -28 -117 -28 -122 1 -186 56 -186 160 0 106 47 143 209 167 112
16 141 31 141 72 0 42 -29 62 -91 63 -46 0 -57 -4 -76 -27 -13 -14 -23 -33
-23 -41 0 -11 -16 -14 -69 -14 -39 0 -72 4 -75 8 -12 20 17 82 54 115 67 61
204 80 320 45z m747 -9 c86 -42 143 -139 143 -246 l0 -53 -190 0 -190 0 0 -22
c0 -99 147 -143 222 -67 26 26 37 29 89 29 58 0 60 -1 54 -22 -13 -44 -59 -99
-103 -125 -33 -20 -62 -27 -117 -31 -124 -8 -207 34 -261 130 -26 48 -29 62
-29 148 0 79 4 102 22 136 27 51 101 117 145 131 60 19 167 15 215 -8z"/>
<path d="M1910 1455 c-46 -49 -24 -126 40 -140 80 -18 134 82 75 140 -33 34
-83 34 -115 0z"/>
<path d="M1010 999 c-41 -9 -83 -20 -93 -24 -42 -18 -41 -92 2 -114 28 -15 87
-14 120 4 35 17 53 60 49 111 l-3 39 -75 -16z"/>
<path d="M1674 1166 c-19 -19 -34 -43 -34 -55 0 -20 5 -21 115 -21 124 0 130
3 104 53 -20 39 -51 57 -102 57 -42 0 -54 -5 -83 -34z"/>
</g>
</svg>
